<svg xmlns="http://www.w3.org/2000/svg" xmlns:xlink="http://www.w3.org/1999/xlink" id="Layer_1" x="0px" y="0px" viewBox="0 0 485 210" style="enable-background:new 0 0 485 210;" xml:space="preserve"><style type="text/css">	.st0{fill:#FFFFFF;}</style><g>	<path class="st0" d="M53.57,3.21h12.77v84.88c0,11.32-0.87,19.84-2.62,25.55c-1.75,5.72-5.07,10.21-9.97,13.48  c-4.9,3.27-10.68,4.9-17.33,4.9c-10.74,0-21.35-4.43-31.85-13.3l6.65-9.97c5.83,3.97,10.61,6.85,14.35,8.66  c3.73,1.81,7.32,2.71,10.76,2.71c3.44,0,6.59-1.05,9.45-3.15c2.86-2.1,4.87-4.99,6.04-8.66c1.17-3.68,1.75-10.59,1.75-20.74V3.21z"></path>	<path class="st0" d="M122.83,3.21h12.6v75.78c0,7.82,0.2,13.71,0.61,17.68c0.41,3.97,1.81,7.79,4.2,11.46  c2.39,3.67,5.74,6.59,10.06,8.75c4.31,2.16,8.95,3.24,13.91,3.24c4.96,0,9.3-0.9,13.04-2.71c3.73-1.81,6.88-4.35,9.45-7.61  c2.56-3.27,4.34-6.85,5.34-10.76c0.99-3.91,1.49-10.59,1.49-20.04V3.21h12.42v75.78c0,12.72-1.28,22.46-3.85,29.23  c-2.57,6.77-7.09,12.43-13.56,16.98c-6.47,4.55-14.09,6.82-22.84,6.82c-7,0-13.3-1.13-18.9-3.41c-5.6-2.28-10.27-5.45-14-9.54  c-3.74-4.08-6.33-8.63-7.79-13.65c-1.46-5.01-2.19-13.82-2.19-26.43V3.21z"></path>	<path class="st0" d="M358.44,3.21h12.6v128.77h-12.6V3.21z"></path>	<path class="st0" d="M408.75,106.03l10.43-6.15c7.29,13.45,15.79,20.18,25.48,20.18c6.27,0,11.63-1.99,16.07-5.99  c4.44-3.99,6.67-8.95,6.67-14.87c0-4.67-1.88-9.4-5.64-14.2c-3.76-4.79-10-10.45-18.72-17.01c-8.72-6.55-14.59-11.45-17.61-14.71  c-3.02-3.25-5.24-6.72-6.67-10.43c-1.42-3.7-2.14-7.44-2.14-11.2c0-7.98,2.82-14.73,8.46-20.26c5.64-5.53,12.74-8.29,21.29-8.29  c6.72,0,12.59,1.68,17.61,5.04c5.02,3.37,9.86,8.35,14.53,14.97l-9.91,7.69c-3.2-4.33-6.5-7.92-9.92-10.77  c-3.42-2.85-7.61-4.28-12.57-4.28c-4.96,0-9.01,1.48-12.14,4.45c-3.14,2.96-4.7,6.72-4.7,11.28c0,4.56,1.39,8.52,4.19,11.89  c2.79,3.36,9.12,8.69,18.98,15.99s17.04,14.02,21.55,20.18c4.5,6.15,6.75,12.65,6.75,19.49c0,8.89-3.45,16.61-10.34,23.16  c-6.9,6.56-14.9,9.83-24.02,9.83C430.3,132.02,417.76,123.36,408.75,106.03z"></path>	<path class="st0" d="M254.47,72.07l46.27,59.89h15.96l-46.44-59.89c14.23,0.48,25.22-2.42,32.99-8.7  c7.77-6.27,11.65-14.91,11.65-25.91c0-5.5-1.07-10.52-3.22-15.07c-2.15-4.54-5.11-8.25-8.88-11.11c-3.77-2.87-8.28-4.93-13.54-6.19  c-5.26-1.26-15.06-1.89-29.41-1.89h-6.99h-7.95v12.55h9.08h15.91c10.76,0,18.71,1.74,23.85,5.2c5.14,3.47,7.71,9.03,7.71,16.67  c0,7.66-2.6,13.24-7.8,16.77c-5.2,3.53-13.3,5.23-24.29,5.11h-19.8h-4.62"></path>	<g>		<path class="st0" d="M18.73,206.65H4.84v-28h3.33v24.83h10.56V206.65z"></path>		<path class="st0" d="M80.32,206.65h-3.48l-4.32-9.37H60.96l-4.28,9.37h-3.63l13.24-29.11h0.99L80.32,206.65z M71.02,193.94   l-4.25-9.45l-4.28,9.45H71.02z"></path>		<path class="st0" d="M146.2,178.64l-8.03,28.69h-0.96l-7.96-20.93l-8.11,20.93h-0.92l-7.88-28.69h3.41l5.39,19.82l7.65-19.82h0.92   l7.57,19.85l5.51-19.85H146.2z"></path>		<path class="st0" d="M249.06,192.95c-0.08,4.54-1.4,8.07-3.96,10.6c-2.56,2.52-5.94,3.79-10.12,3.79c-4.79,0-8.62-1.47-11.48-4.42   c-2.86-2.95-4.28-6.4-4.28-10.35c0-3.95,1.43-7.38,4.28-10.27c2.86-2.9,6.54-4.34,11.06-4.34c2.45,0,4.72,0.45,6.83,1.36   c2.1,0.9,4.16,2.29,6.18,4.15l-2.53,2.41c-1.56-1.5-3.24-2.66-5.05-3.46c-1.81-0.8-3.67-1.2-5.59-1.2c-1.91,0-3.81,0.51-5.7,1.53   c-1.89,1.02-3.37,2.4-4.44,4.13c-1.07,1.73-1.61,3.61-1.61,5.62c0,3.14,1.18,5.87,3.54,8.2c2.36,2.33,5.31,3.5,8.86,3.5   c2.63,0,4.9-0.72,6.81-2.16c1.91-1.44,3.09-3.41,3.52-5.91h-8.72v-3.18H249.06z"></path>		<path class="st0" d="M302.28,206.65h-4.13l-9.87-12.78h-1.15v12.78h-3.29v-28h5.74c3.06,0,5.16,0.13,6.31,0.4   c1.15,0.27,2.14,0.72,2.98,1.36c0.84,0.64,1.5,1.46,1.99,2.47c0.48,1.01,0.73,2.12,0.73,3.35c0,2.32-0.79,4.18-2.37,5.57   c-1.58,1.39-3.86,2.09-6.85,2.09L302.28,206.65z M287.13,190.65h4.47c2.24,0.03,3.9-0.31,4.97-1.01c1.07-0.7,1.61-1.82,1.61-3.37   c0-1.54-0.52-2.66-1.57-3.36c-1.05-0.7-2.68-1.05-4.9-1.05h-4.59V190.65z"></path>		<path class="st0" d="M350.32,177.95c2.73,0,5.24,0.64,7.54,1.93c2.3,1.29,4.1,3.07,5.41,5.34s1.97,4.74,1.97,7.4   c0,2.67-0.65,5.13-1.95,7.4c-1.3,2.27-3.09,4.05-5.36,5.35c-2.27,1.3-4.74,1.95-7.4,1.95s-5.14-0.64-7.44-1.93   c-2.3-1.29-4.09-3.06-5.39-5.32c-1.3-2.26-1.95-4.72-1.95-7.38c0-2.66,0.65-5.14,1.95-7.42c1.3-2.28,3.08-4.07,5.34-5.37   C345.29,178.6,347.72,177.95,350.32,177.95z M350.44,204.12c3.19,0,5.88-1.09,8.09-3.25c2.21-2.17,3.31-4.88,3.31-8.15   c0-3.26-1.11-6.01-3.35-8.22c-2.23-2.22-4.91-3.33-8.05-3.33c-3.21,0-5.9,1.12-8.05,3.35c-2.16,2.23-3.23,4.95-3.23,8.15   c0,3.2,1.11,5.91,3.33,8.13C344.7,203.01,347.35,204.12,350.44,204.12z"></path>		<path class="st0" d="M420.56,195.48c0,2.83-0.29,5.01-0.86,6.52c-0.57,1.52-1.59,2.79-3.06,3.81c-1.47,1.02-3.18,1.53-5.14,1.53   c-1.56,0-2.96-0.25-4.21-0.75s-2.29-1.2-3.12-2.1c-0.83-0.9-1.42-1.91-1.78-3.02s-0.53-3.11-0.53-5.99v-16.83h3.29v16.83   c0,1.81,0.05,3.12,0.15,3.92c0.1,0.8,0.4,1.58,0.88,2.33c0.49,0.75,1.18,1.35,2.09,1.8s1.93,0.67,3.08,0.67   c1.38,0,2.57-0.4,3.58-1.2c1.01-0.8,1.66-1.73,1.95-2.79c0.29-1.06,0.44-2.63,0.44-4.72v-16.83h3.25V195.48z"></path>		<path class="st0" d="M460.65,178.64h5.74c3.26,0,5.41,0.13,6.43,0.38s1.96,0.71,2.81,1.38s1.52,1.49,2.01,2.48   c0.49,0.99,0.73,2.12,0.73,3.37c0,1.25-0.24,2.37-0.71,3.37c-0.47,0.99-1.15,1.82-2.03,2.47c-0.88,0.65-1.96,1.11-3.23,1.38   c-1.28,0.27-3.53,0.4-6.77,0.4h-1.68v12.78h-3.29V178.64z M463.94,190.69h4.36c2.58,0.05,4.33-0.36,5.26-1.22   c0.93-0.87,1.4-1.95,1.4-3.25c0-2.91-2.14-4.36-6.43-4.36h-4.59V190.69z"></path>	</g></g></svg>